<svg xmlns="http://www.w3.org/2000/svg" xmlns:xlink="http://www.w3.org/1999/xlink" width="500" zoomAndPan="magnify" viewBox="0 0 375 374.999991" height="500" preserveAspectRatio="xMidYMid meet" version="1.0"><defs><g/><clipPath id="ccc2ac6830"><path d="M 19.003906 191.773438 L 366.234375 191.773438 L 366.234375 195.535156 L 19.003906 195.535156 Z M 19.003906 191.773438 " clip-rule="nonzero"/></clipPath><clipPath id="4396bbe2d5"><path d="M 19.003906 115 L 51 115 L 51 165 L 19.003906 165 Z M 19.003906 115 " clip-rule="nonzero"/></clipPath><clipPath id="1906e358f0"><path d="M 19.003906 120 L 51 120 L 51 176 L 19.003906 176 Z M 19.003906 120 " clip-rule="nonzero"/></clipPath><clipPath id="340bea290a"><path d="M 19.003906 102 L 148 102 L 148 186 L 19.003906 186 Z M 19.003906 102 " clip-rule="nonzero"/></clipPath><clipPath id="b8fb1dc3aa"><path d="M 19.003906 124 L 43 124 L 43 168 L 19.003906 168 Z M 19.003906 124 " clip-rule="nonzero"/></clipPath><clipPath id="b8a49969d4"><path d="M 19.003906 128 L 43 128 L 43 189 L 19.003906 189 Z M 19.003906 128 " clip-rule="nonzero"/></clipPath></defs><rect x="-37.5" width="450" fill="#ffffff" y="-37.499999" height="449.999989" fill-opacity="1"/><rect x="-37.5" width="450" fill="#ffffff" y="-37.499999" height="449.999989" fill-opacity="1"/><g fill="#5e5653" fill-opacity="1"><g transform="translate(20.228541, 211.838482)"><g><path d="M 1.671875 0 L 1.671875 -12.125 L 3.078125 -12.125 L 3.078125 0 Z M 1.671875 0 "/></g></g></g><g fill="#5e5653" fill-opacity="1"><g transform="translate(31.905682, 211.838482)"><g><path d="M 11.140625 0 L 9.53125 0 L 2.90625 -10.171875 L 2.84375 -10.171875 C 2.925781 -8.984375 2.96875 -7.890625 2.96875 -6.890625 L 2.96875 0 L 1.671875 0 L 1.671875 -12.125 L 3.265625 -12.125 L 9.875 -1.984375 L 9.9375 -1.984375 C 9.925781 -2.140625 9.898438 -2.617188 9.859375 -3.421875 C 9.816406 -4.234375 9.800781 -4.816406 9.8125 -5.171875 L 9.8125 -12.125 L 11.140625 -12.125 Z M 11.140625 0 "/></g></g></g><g fill="#5e5653" fill-opacity="1"><g transform="translate(51.644636, 211.838482)"><g><path d="M 5.40625 0 L 3.984375 0 L 3.984375 -10.875 L 0.15625 -10.875 L 0.15625 -12.125 L 9.234375 -12.125 L 9.234375 -10.875 L 5.40625 -10.875 Z M 5.40625 0 "/></g></g></g><g fill="#5e5653" fill-opacity="1"><g transform="translate(67.978241, 211.838482)"><g><path d="M 8.421875 0 L 1.671875 0 L 1.671875 -12.125 L 8.421875 -12.125 L 8.421875 -10.875 L 3.078125 -10.875 L 3.078125 -6.96875 L 8.109375 -6.96875 L 8.109375 -5.71875 L 3.078125 -5.71875 L 3.078125 -1.265625 L 8.421875 -1.265625 Z M 8.421875 0 "/></g></g></g><g fill="#5e5653" fill-opacity="1"><g transform="translate(84.361558, 211.838482)"><g><path d="M 3.078125 -5.046875 L 3.078125 0 L 1.671875 0 L 1.671875 -12.125 L 5 -12.125 C 6.476562 -12.125 7.570312 -11.835938 8.28125 -11.265625 C 9 -10.703125 9.359375 -9.847656 9.359375 -8.703125 C 9.359375 -7.097656 8.546875 -6.015625 6.921875 -5.453125 L 10.203125 0 L 8.546875 0 L 5.609375 -5.046875 Z M 3.078125 -6.25 L 5.015625 -6.25 C 6.003906 -6.25 6.726562 -6.445312 7.1875 -6.84375 C 7.65625 -7.238281 7.890625 -7.832031 7.890625 -8.625 C 7.890625 -9.425781 7.65625 -10.003906 7.1875 -10.359375 C 6.71875 -10.710938 5.957031 -10.890625 4.90625 -10.890625 L 3.078125 -10.890625 Z M 3.078125 -6.25 "/></g></g></g><g fill="#5e5653" fill-opacity="1"><g transform="translate(101.797135, 211.838482)"><g><path d="M 1.671875 0 L 1.671875 -12.125 L 3.078125 -12.125 L 3.078125 0 Z M 1.671875 0 "/></g></g></g><g fill="#5e5653" fill-opacity="1"><g transform="translate(113.474273, 211.838482)"><g><path d="M 12.1875 -6.078125 C 12.1875 -4.140625 11.695312 -2.613281 10.71875 -1.5 C 9.738281 -0.382812 8.375 0.171875 6.625 0.171875 C 4.84375 0.171875 3.460938 -0.375 2.484375 -1.46875 C 1.515625 -2.5625 1.03125 -4.101562 1.03125 -6.09375 C 1.03125 -8.070312 1.515625 -9.601562 2.484375 -10.6875 C 3.460938 -11.769531 4.847656 -12.3125 6.640625 -12.3125 C 8.378906 -12.3125 9.738281 -11.757812 10.71875 -10.65625 C 11.695312 -9.550781 12.1875 -8.023438 12.1875 -6.078125 Z M 2.53125 -6.078125 C 2.53125 -4.429688 2.878906 -3.179688 3.578125 -2.328125 C 4.273438 -1.484375 5.289062 -1.0625 6.625 -1.0625 C 7.96875 -1.0625 8.984375 -1.484375 9.671875 -2.328125 C 10.359375 -3.179688 10.703125 -4.429688 10.703125 -6.078125 C 10.703125 -7.710938 10.359375 -8.953125 9.671875 -9.796875 C 8.992188 -10.640625 7.984375 -11.0625 6.640625 -11.0625 C 5.296875 -11.0625 4.273438 -10.632812 3.578125 -9.78125 C 2.878906 -8.9375 2.53125 -7.703125 2.53125 -6.078125 Z M 2.53125 -6.078125 "/></g></g></g><g fill="#5e5653" fill-opacity="1"><g transform="translate(133.635786, 211.838482)"><g><path d="M 3.078125 -5.046875 L 3.078125 0 L 1.671875 0 L 1.671875 -12.125 L 5 -12.125 C 6.476562 -12.125 7.570312 -11.835938 8.28125 -11.265625 C 9 -10.703125 9.359375 -9.847656 9.359375 -8.703125 C 9.359375 -7.097656 8.546875 -6.015625 6.921875 -5.453125 L 10.203125 0 L 8.546875 0 L 5.609375 -5.046875 Z M 3.078125 -6.25 L 5.015625 -6.25 C 6.003906 -6.25 6.726562 -6.445312 7.1875 -6.84375 C 7.65625 -7.238281 7.890625 -7.832031 7.890625 -8.625 C 7.890625 -9.425781 7.65625 -10.003906 7.1875 -10.359375 C 6.71875 -10.710938 5.957031 -10.890625 4.90625 -10.890625 L 3.078125 -10.890625 Z M 3.078125 -6.25 "/></g></g></g><g fill="#5e5653" fill-opacity="1"><g transform="translate(151.071363, 211.838482)"><g/></g></g><g fill="#5e5653" fill-opacity="1"><g transform="translate(162.425366, 211.838482)"><g><path d="M 3.4375 -9.71875 C 3.4375 -9.332031 3.535156 -8.96875 3.734375 -8.625 C 3.929688 -8.28125 4.269531 -7.863281 4.75 -7.375 C 5.46875 -7.789062 5.960938 -8.171875 6.234375 -8.515625 C 6.515625 -8.867188 6.65625 -9.273438 6.65625 -9.734375 C 6.65625 -10.160156 6.515625 -10.503906 6.234375 -10.765625 C 5.953125 -11.035156 5.570312 -11.171875 5.09375 -11.171875 C 4.601562 -11.171875 4.203125 -11.039062 3.890625 -10.78125 C 3.585938 -10.519531 3.4375 -10.164062 3.4375 -9.71875 Z M 4.71875 -1.0625 C 6.050781 -1.0625 7.15625 -1.488281 8.03125 -2.34375 L 4.40625 -5.859375 C 3.789062 -5.484375 3.359375 -5.171875 3.109375 -4.921875 C 2.859375 -4.679688 2.671875 -4.421875 2.546875 -4.140625 C 2.421875 -3.859375 2.359375 -3.535156 2.359375 -3.171875 C 2.359375 -2.523438 2.570312 -2.007812 3 -1.625 C 3.4375 -1.25 4.007812 -1.0625 4.71875 -1.0625 Z M 0.9375 -3.140625 C 0.9375 -3.859375 1.128906 -4.492188 1.515625 -5.046875 C 1.898438 -5.597656 2.585938 -6.15625 3.578125 -6.71875 C 3.109375 -7.25 2.789062 -7.648438 2.625 -7.921875 C 2.457031 -8.191406 2.320312 -8.472656 2.21875 -8.765625 C 2.125 -9.054688 2.078125 -9.359375 2.078125 -9.671875 C 2.078125 -10.503906 2.347656 -11.148438 2.890625 -11.609375 C 3.429688 -12.078125 4.1875 -12.3125 5.15625 -12.3125 C 6.050781 -12.3125 6.753906 -12.082031 7.265625 -11.625 C 7.773438 -11.164062 8.03125 -10.519531 8.03125 -9.6875 C 8.03125 -9.101562 7.84375 -8.5625 7.46875 -8.0625 C 7.09375 -7.5625 6.472656 -7.050781 5.609375 -6.53125 L 8.984375 -3.296875 C 9.296875 -3.640625 9.539062 -4.039062 9.71875 -4.5 C 9.90625 -4.957031 10.0625 -5.460938 10.1875 -6.015625 L 11.578125 -6.015625 C 11.203125 -4.429688 10.640625 -3.226562 9.890625 -2.40625 L 12.359375 0 L 10.46875 0 L 8.9375 -1.46875 C 8.28125 -0.882812 7.613281 -0.460938 6.9375 -0.203125 C 6.257812 0.046875 5.507812 0.171875 4.6875 0.171875 C 3.5 0.171875 2.578125 -0.117188 1.921875 -0.703125 C 1.265625 -1.296875 0.9375 -2.109375 0.9375 -3.140625 Z M 0.9375 -3.140625 "/></g></g></g><g fill="#5e5653" fill-opacity="1"><g transform="translate(181.758327, 211.838482)"><g/></g></g><g fill="#5e5653" fill-opacity="1"><g transform="translate(193.11233, 211.838482)"><g><path d="M 11.34375 -6.171875 C 11.34375 -4.171875 10.796875 -2.640625 9.703125 -1.578125 C 8.617188 -0.523438 7.0625 0 5.03125 0 L 1.671875 0 L 1.671875 -12.125 L 5.375 -12.125 C 7.257812 -12.125 8.722656 -11.597656 9.765625 -10.546875 C 10.816406 -9.503906 11.34375 -8.046875 11.34375 -6.171875 Z M 9.859375 -6.125 C 9.859375 -7.707031 9.457031 -8.898438 8.65625 -9.703125 C 7.863281 -10.503906 6.6875 -10.90625 5.125 -10.90625 L 3.078125 -10.90625 L 3.078125 -1.21875 L 4.796875 -1.21875 C 6.472656 -1.21875 7.734375 -1.628906 8.578125 -2.453125 C 9.429688 -3.285156 9.859375 -4.507812 9.859375 -6.125 Z M 9.859375 -6.125 "/></g></g></g><g fill="#5e5653" fill-opacity="1"><g transform="translate(212.428731, 211.838482)"><g><path d="M 8.421875 0 L 1.671875 0 L 1.671875 -12.125 L 8.421875 -12.125 L 8.421875 -10.875 L 3.078125 -10.875 L 3.078125 -6.96875 L 8.109375 -6.96875 L 8.109375 -5.71875 L 3.078125 -5.71875 L 3.078125 -1.265625 L 8.421875 -1.265625 Z M 8.421875 0 "/></g></g></g><g fill="#5e5653" fill-opacity="1"><g transform="translate(228.812046, 211.838482)"><g><path d="M 6.859375 -11.03125 C 5.523438 -11.03125 4.472656 -10.585938 3.703125 -9.703125 C 2.929688 -8.816406 2.546875 -7.601562 2.546875 -6.0625 C 2.546875 -4.476562 2.914062 -3.253906 3.65625 -2.390625 C 4.40625 -1.523438 5.46875 -1.09375 6.84375 -1.09375 C 7.6875 -1.09375 8.648438 -1.242188 9.734375 -1.546875 L 9.734375 -0.3125 C 8.890625 0.0078125 7.851562 0.171875 6.625 0.171875 C 4.84375 0.171875 3.460938 -0.367188 2.484375 -1.453125 C 1.515625 -2.535156 1.03125 -4.078125 1.03125 -6.078125 C 1.03125 -7.328125 1.265625 -8.421875 1.734375 -9.359375 C 2.203125 -10.296875 2.875 -11.019531 3.75 -11.53125 C 4.632812 -12.039062 5.675781 -12.296875 6.875 -12.296875 C 8.144531 -12.296875 9.253906 -12.066406 10.203125 -11.609375 L 9.609375 -10.390625 C 8.691406 -10.816406 7.773438 -11.03125 6.859375 -11.03125 Z M 6.859375 -11.03125 "/></g></g></g><g fill="#5e5653" fill-opacity="1"><g transform="translate(246.463046, 211.838482)"><g><path d="M 12.1875 -6.078125 C 12.1875 -4.140625 11.695312 -2.613281 10.71875 -1.5 C 9.738281 -0.382812 8.375 0.171875 6.625 0.171875 C 4.84375 0.171875 3.460938 -0.375 2.484375 -1.46875 C 1.515625 -2.5625 1.03125 -4.101562 1.03125 -6.09375 C 1.03125 -8.070312 1.515625 -9.601562 2.484375 -10.6875 C 3.460938 -11.769531 4.847656 -12.3125 6.640625 -12.3125 C 8.378906 -12.3125 9.738281 -11.757812 10.71875 -10.65625 C 11.695312 -9.550781 12.1875 -8.023438 12.1875 -6.078125 Z M 2.53125 -6.078125 C 2.53125 -4.429688 2.878906 -3.179688 3.578125 -2.328125 C 4.273438 -1.484375 5.289062 -1.0625 6.625 -1.0625 C 7.96875 -1.0625 8.984375 -1.484375 9.671875 -2.328125 C 10.359375 -3.179688 10.703125 -4.429688 10.703125 -6.078125 C 10.703125 -7.710938 10.359375 -8.953125 9.671875 -9.796875 C 8.992188 -10.640625 7.984375 -11.0625 6.640625 -11.0625 C 5.296875 -11.0625 4.273438 -10.632812 3.578125 -9.78125 C 2.878906 -8.9375 2.53125 -7.703125 2.53125 -6.078125 Z M 2.53125 -6.078125 "/></g></g></g><g fill="#5e5653" fill-opacity="1"><g transform="translate(266.624559, 211.838482)"><g><path d="M 3.078125 -5.046875 L 3.078125 0 L 1.671875 0 L 1.671875 -12.125 L 5 -12.125 C 6.476562 -12.125 7.570312 -11.835938 8.28125 -11.265625 C 9 -10.703125 9.359375 -9.847656 9.359375 -8.703125 C 9.359375 -7.097656 8.546875 -6.015625 6.921875 -5.453125 L 10.203125 0 L 8.546875 0 L 5.609375 -5.046875 Z M 3.078125 -6.25 L 5.015625 -6.25 C 6.003906 -6.25 6.726562 -6.445312 7.1875 -6.84375 C 7.65625 -7.238281 7.890625 -7.832031 7.890625 -8.625 C 7.890625 -9.425781 7.65625 -10.003906 7.1875 -10.359375 C 6.71875 -10.710938 5.957031 -10.890625 4.90625 -10.890625 L 3.078125 -10.890625 Z M 3.078125 -6.25 "/></g></g></g><g fill="#5e5653" fill-opacity="1"><g transform="translate(284.060135, 211.838482)"><g><path d="M 9.28125 0 L 7.78125 -3.859375 L 2.921875 -3.859375 L 1.421875 0 L 0 0 L 4.796875 -12.171875 L 5.984375 -12.171875 L 10.75 0 Z M 7.34375 -5.125 L 5.921875 -8.875 C 5.742188 -9.351562 5.554688 -9.9375 5.359375 -10.625 C 5.242188 -10.09375 5.070312 -9.507812 4.84375 -8.875 L 3.421875 -5.125 Z M 7.34375 -5.125 "/></g></g></g><g fill="#5e5653" fill-opacity="1"><g transform="translate(301.744277, 211.838482)"><g><path d="M 5.40625 0 L 3.984375 0 L 3.984375 -10.875 L 0.15625 -10.875 L 0.15625 -12.125 L 9.234375 -12.125 L 9.234375 -10.875 L 5.40625 -10.875 Z M 5.40625 0 "/></g></g></g><g fill="#5e5653" fill-opacity="1"><g transform="translate(318.077879, 211.838482)"><g><path d="M 12.1875 -6.078125 C 12.1875 -4.140625 11.695312 -2.613281 10.71875 -1.5 C 9.738281 -0.382812 8.375 0.171875 6.625 0.171875 C 4.84375 0.171875 3.460938 -0.375 2.484375 -1.46875 C 1.515625 -2.5625 1.03125 -4.101562 1.03125 -6.09375 C 1.03125 -8.070312 1.515625 -9.601562 2.484375 -10.6875 C 3.460938 -11.769531 4.847656 -12.3125 6.640625 -12.3125 C 8.378906 -12.3125 9.738281 -11.757812 10.71875 -10.65625 C 11.695312 -9.550781 12.1875 -8.023438 12.1875 -6.078125 Z M 2.53125 -6.078125 C 2.53125 -4.429688 2.878906 -3.179688 3.578125 -2.328125 C 4.273438 -1.484375 5.289062 -1.0625 6.625 -1.0625 C 7.96875 -1.0625 8.984375 -1.484375 9.671875 -2.328125 C 10.359375 -3.179688 10.703125 -4.429688 10.703125 -6.078125 C 10.703125 -7.710938 10.359375 -8.953125 9.671875 -9.796875 C 8.992188 -10.640625 7.984375 -11.0625 6.640625 -11.0625 C 5.296875 -11.0625 4.273438 -10.632812 3.578125 -9.78125 C 2.878906 -8.9375 2.53125 -7.703125 2.53125 -6.078125 Z M 2.53125 -6.078125 "/></g></g></g><g fill="#5e5653" fill-opacity="1"><g transform="translate(338.239391, 211.838482)"><g><path d="M 3.078125 -5.046875 L 3.078125 0 L 1.671875 0 L 1.671875 -12.125 L 5 -12.125 C 6.476562 -12.125 7.570312 -11.835938 8.28125 -11.265625 C 9 -10.703125 9.359375 -9.847656 9.359375 -8.703125 C 9.359375 -7.097656 8.546875 -6.015625 6.921875 -5.453125 L 10.203125 0 L 8.546875 0 L 5.609375 -5.046875 Z M 3.078125 -6.25 L 5.015625 -6.25 C 6.003906 -6.25 6.726562 -6.445312 7.1875 -6.84375 C 7.65625 -7.238281 7.890625 -7.832031 7.890625 -8.625 C 7.890625 -9.425781 7.65625 -10.003906 7.1875 -10.359375 C 6.71875 -10.710938 5.957031 -10.890625 4.90625 -10.890625 L 3.078125 -10.890625 Z M 3.078125 -6.25 "/></g></g></g><g fill="#5e5653" fill-opacity="1"><g transform="translate(355.674968, 211.838482)"><g><path d="M 8.515625 -3.21875 C 8.515625 -2.15625 8.125 -1.320312 7.34375 -0.71875 C 6.570312 -0.125 5.523438 0.171875 4.203125 0.171875 C 2.765625 0.171875 1.65625 -0.015625 0.875 -0.390625 L 0.875 -1.75 C 1.375 -1.539062 1.914062 -1.375 2.5 -1.25 C 3.09375 -1.125 3.675781 -1.0625 4.25 -1.0625 C 5.1875 -1.0625 5.890625 -1.238281 6.359375 -1.59375 C 6.835938 -1.957031 7.078125 -2.457031 7.078125 -3.09375 C 7.078125 -3.507812 6.992188 -3.851562 6.828125 -4.125 C 6.660156 -4.394531 6.378906 -4.640625 5.984375 -4.859375 C 5.585938 -5.085938 4.988281 -5.347656 4.1875 -5.640625 C 3.050781 -6.046875 2.238281 -6.523438 1.75 -7.078125 C 1.269531 -7.628906 1.03125 -8.347656 1.03125 -9.234375 C 1.03125 -10.171875 1.378906 -10.914062 2.078125 -11.46875 C 2.785156 -12.019531 3.71875 -12.296875 4.875 -12.296875 C 6.082031 -12.296875 7.191406 -12.078125 8.203125 -11.640625 L 7.765625 -10.40625 C 6.765625 -10.820312 5.789062 -11.03125 4.84375 -11.03125 C 4.09375 -11.03125 3.507812 -10.867188 3.09375 -10.546875 C 2.675781 -10.234375 2.46875 -9.789062 2.46875 -9.21875 C 2.46875 -8.800781 2.539062 -8.457031 2.6875 -8.1875 C 2.84375 -7.914062 3.101562 -7.664062 3.46875 -7.4375 C 3.84375 -7.21875 4.410156 -6.972656 5.171875 -6.703125 C 6.441406 -6.253906 7.316406 -5.769531 7.796875 -5.25 C 8.273438 -4.726562 8.515625 -4.050781 8.515625 -3.21875 Z M 8.515625 -3.21875 "/></g></g></g><g fill="#5e5653" fill-opacity="1"><g transform="translate(110.232557, 187.745202)"><g><path d="M 37.890625 0 L 28.390625 0 L 26.0625 -6.046875 L 11.296875 -6.046875 L 8.90625 0 L -0.25 0 L 14.421875 -34.140625 L 23.578125 -34.140625 Z M 18.75 -25.03125 L 13.984375 -12.859375 L 23.421875 -12.859375 Z M 18.75 -25.03125 "/></g></g></g><g fill="#5e5653" fill-opacity="1"><g transform="translate(147.866299, 187.745202)"><g><path d="M 3.3125 0 L 3.3125 -34.140625 L 12.21875 -34.140625 L 12.21875 -20.21875 L 26 -20.21875 L 26 -34.140625 L 34.921875 -34.140625 L 34.921875 0 L 26 0 L 26 -13.09375 L 12.21875 -13.09375 L 12.21875 0 Z M 3.3125 0 "/></g></g></g><g fill="#5e5653" fill-opacity="1"><g transform="translate(186.084257, 187.745202)"><g><path d="M 37.890625 0 L 28.390625 0 L 26.0625 -6.046875 L 11.296875 -6.046875 L 8.90625 0 L -0.25 0 L 14.421875 -34.140625 L 23.578125 -34.140625 Z M 18.75 -25.03125 L 13.984375 -12.859375 L 23.421875 -12.859375 Z M 18.75 -25.03125 "/></g></g></g><g fill="#5e5653" fill-opacity="1"><g transform="translate(223.717998, 187.745202)"><g><path d="M 13.15625 0 L -0.09375 -34.140625 L 9.5 -34.140625 L 18.015625 -9.453125 L 26.59375 -34.140625 L 35.75 -34.140625 L 22.40625 0 Z M 13.15625 0 "/></g></g></g><g fill="#5e5653" fill-opacity="1"><g transform="translate(259.355649, 187.745202)"><g><path d="M 3.3125 0 L 3.3125 -34.140625 L 30.25 -34.140625 L 30.25 -27.03125 L 12.21875 -27.03125 L 12.21875 -20.65625 L 28.484375 -20.65625 L 28.484375 -13.59375 L 12.21875 -13.546875 L 12.21875 -7.109375 L 30.734375 -7.109375 L 30.734375 0 Z M 3.3125 0 "/></g></g></g><g fill="#5e5653" fill-opacity="1"><g transform="translate(292.218226, 187.745202)"><g><path d="M 3.3125 0 L 3.3125 -34.140625 L 30.25 -34.140625 L 30.25 -27.03125 L 12.21875 -27.03125 L 12.21875 -20.65625 L 28.484375 -20.65625 L 28.484375 -13.59375 L 12.21875 -13.546875 L 12.21875 -7.109375 L 30.734375 -7.109375 L 30.734375 0 Z M 3.3125 0 "/></g></g></g><g fill="#5e5653" fill-opacity="1"><g transform="translate(325.080804, 187.745202)"><g><path d="M 33.890625 0 L 23.8125 0 L 18.84375 -9.453125 L 12.21875 -9.453125 L 12.21875 0 L 3.3125 0 L 3.3125 -34.140625 L 18.65625 -34.140625 C 23.164062 -34.140625 26.660156 -33.09375 29.140625 -31 C 31.628906 -28.90625 32.875 -25.957031 32.875 -22.15625 C 32.875 -19.59375 32.351562 -17.378906 31.3125 -15.515625 C 30.269531 -13.648438 28.757812 -12.195312 26.78125 -11.15625 Z M 12.21875 -27.03125 L 12.21875 -16.5625 L 18.703125 -16.5625 C 20.515625 -16.5625 21.914062 -17.015625 22.90625 -17.921875 C 23.90625 -18.828125 24.40625 -20.144531 24.40625 -21.875 C 24.40625 -23.53125 23.90625 -24.800781 22.90625 -25.6875 C 21.914062 -26.582031 20.515625 -27.03125 18.703125 -27.03125 Z M 12.21875 -27.03125 "/></g></g></g><g fill="#5e5653" fill-opacity="1"><g transform="translate(360.329441, 187.745202)"><g/></g></g><g clip-path="url(#ccc2ac6830)"><path fill="#ff9f00" d="M 19.003906 191.773438 L 366.234375 191.773438 L 366.234375 195.535156 L 19.003906 195.535156 Z M 19.003906 191.773438 " fill-opacity="1" fill-rule="nonzero"/></g><path stroke-linecap="butt" transform="matrix(0.75, 0, 0, 0.75, -24.223004, 62.233501)" fill="none" stroke-linejoin="miter" d="M 175.339028 83.308468 C 170.292152 88.219927 166.958818 91.636594 165.339026 93.55847 C 158.526525 101.636596 152.094233 109.693888 146.047357 117.735556 " stroke="#809924" stroke-width="2" stroke-opacity="1" stroke-miterlimit="4"/><g clip-path="url(#4396bbe2d5)"><path stroke-linecap="butt" transform="matrix(0.75, 0, 0, 0.75, -24.223004, 62.233501)" fill="none" stroke-linejoin="miter" d="M 88.464016 124.480349 L 58.656721 82.80326 " stroke="#759016" stroke-width="2" stroke-opacity="1" stroke-miterlimit="4"/></g><g clip-path="url(#1906e358f0)"><path stroke-linecap="butt" transform="matrix(0.75, 0, 0, 0.75, -24.223004, 62.233501)" fill="none" stroke-linejoin="miter" d="M 88.349433 140.027226 C 87.057766 140.089726 86.193183 139.652225 85.656724 138.402225 C 81.687974 129.240766 78.141098 121.584515 75.016098 115.433472 C 73.245264 111.954305 71.531722 108.459513 69.865056 104.938679 C 68.526514 102.110554 67.00568 99.266804 65.297347 96.407428 C 64.078596 94.350136 62.448388 92.813678 61.432763 90.777219 C 61.141096 90.173052 60.812971 89.704302 60.464013 89.376177 C 59.271304 88.235552 58.677554 88.094927 58.677554 88.949094 " stroke="#3c3e39" stroke-width="2" stroke-opacity="1" stroke-miterlimit="4"/></g><g clip-path="url(#340bea290a)"><path fill="#ff9f00" d="M 107.28125 124.714844 C 103.496094 128.398438 100.996094 130.960938 99.78125 132.402344 C 94.671875 138.460938 89.847656 144.503906 85.3125 150.535156 C 82.164062 154.449219 79.71875 157.808594 77.976562 160.605469 C 73.203125 168.273438 68.675781 176.285156 64.390625 184.636719 C 63.980469 185.4375 63.515625 185.472656 62.996094 184.746094 L 42.125 155.59375 L 19.769531 124.335938 C 27.496094 123.882812 34.972656 123.832031 42.203125 124.191406 C 42.800781 124.222656 43.28125 124.472656 43.644531 124.949219 C 50.175781 133.609375 56.65625 142.039062 63.078125 150.242188 C 63.460938 150.726562 63.828125 150.714844 64.171875 150.210938 C 73.832031 136.105469 84.445312 123.121094 98.210938 113.113281 C 102.425781 110.050781 106.777344 107.613281 111.269531 105.800781 C 121.089844 101.84375 130.925781 101.855469 140.785156 105.832031 C 142.964844 106.707031 145.113281 107.886719 147.230469 109.363281 C 147.636719 109.648438 147.59375 109.757812 147.097656 109.695312 C 144.589844 109.394531 141.917969 108.75 139.429688 108.898438 C 133.824219 109.21875 129.097656 110.300781 125.246094 112.144531 C 119.03125 115.113281 113.042969 119.304688 107.28125 124.714844 Z M 107.28125 124.714844 " fill-opacity="1" fill-rule="nonzero"/></g><g clip-path="url(#b8fb1dc3aa)"><path fill="#5e5653" d="M 19.769531 124.335938 L 42.125 155.59375 L 42.039062 167.253906 C 41.070312 167.300781 40.421875 166.972656 40.019531 166.035156 C 37.042969 159.164062 34.382812 153.421875 32.039062 148.808594 C 30.710938 146.199219 29.425781 143.578125 28.175781 140.9375 C 27.171875 138.816406 26.03125 136.683594 24.75 134.539062 C 23.835938 132.996094 22.613281 131.84375 21.851562 130.316406 C 21.632812 129.863281 21.386719 129.511719 21.125 129.265625 C 20.230469 128.410156 19.785156 128.304688 19.785156 128.945312 Z M 19.769531 124.335938 " fill-opacity="1" fill-rule="nonzero"/></g><path fill="#5e5653" d="M 107.28125 124.714844 L 107.429688 187.371094 C 107.429688 188.289062 106.96875 188.746094 106.050781 188.742188 L 86.226562 188.601562 C 86.03125 188.601562 85.863281 188.527344 85.726562 188.390625 C 85.585938 188.25 85.515625 188.078125 85.515625 187.882812 L 85.3125 150.535156 C 89.847656 144.503906 94.671875 138.460938 99.78125 132.402344 C 100.996094 130.960938 103.496094 128.398438 107.28125 124.714844 Z M 107.28125 124.714844 " fill-opacity="1" fill-rule="nonzero"/><g clip-path="url(#b8a49969d4)"><path fill="#5e5653" d="M 42.039062 167.253906 L 41.917969 188.199219 C 41.917969 188.339844 41.867188 188.460938 41.765625 188.558594 C 41.667969 188.65625 41.546875 188.703125 41.40625 188.703125 L 20.824219 188.476562 C 20.671875 188.476562 20.527344 188.449219 20.386719 188.386719 C 20.246094 188.328125 20.125 188.246094 20.015625 188.140625 C 19.910156 188.03125 19.828125 187.910156 19.769531 187.769531 C 19.714844 187.628906 19.683594 187.484375 19.683594 187.332031 L 19.785156 128.945312 C 19.785156 128.304688 20.230469 128.410156 21.125 129.265625 C 21.386719 129.511719 21.632812 129.863281 21.851562 130.316406 C 22.613281 131.84375 23.835938 132.996094 24.75 134.539062 C 26.03125 136.683594 27.171875 138.816406 28.175781 140.9375 C 29.425781 143.578125 30.710938 146.199219 32.039062 148.808594 C 34.382812 153.421875 37.042969 159.164062 40.019531 166.035156 C 40.421875 166.972656 41.070312 167.300781 42.039062 167.253906 Z M 42.039062 167.253906 " fill-opacity="1" fill-rule="nonzero"/></g></svg>