<svg xmlns="http://www.w3.org/2000/svg" xmlns:xlink="http://www.w3.org/1999/xlink" width="500" zoomAndPan="magnify" viewBox="0 0 375 374.999991" height="500" preserveAspectRatio="xMidYMid meet" version="1.0"><defs><g/><clipPath id="62cf15e9be"><path d="M 283.046875 348 L 288 348 L 288 352 L 283.046875 352 Z M 283.046875 348 " clip-rule="nonzero"/></clipPath><clipPath id="6215c53018"><path d="M 286 348 L 289.046875 348 L 289.046875 352 L 286 352 Z M 286 348 " clip-rule="nonzero"/></clipPath><clipPath id="7f51bfccd5"><path d="M 283.046875 346.070312 L 287 346.070312 L 287 351 L 283.046875 351 Z M 283.046875 346.070312 " clip-rule="nonzero"/></clipPath><clipPath id="934f541891"><path d="M 283.046875 350 L 285 350 L 285 352 L 283.046875 352 Z M 283.046875 350 " clip-rule="nonzero"/></clipPath><clipPath id="9e4aa30c04"><path d="M 286 346.070312 L 289.046875 346.070312 L 289.046875 350 L 286 350 Z M 286 346.070312 " clip-rule="nonzero"/></clipPath><clipPath id="720d8a2e23"><path d="M 19.003906 191.773438 L 366.234375 191.773438 L 366.234375 195.535156 L 19.003906 195.535156 Z M 19.003906 191.773438 " clip-rule="nonzero"/></clipPath><clipPath id="ba28c65c9b"><path d="M 19.003906 107 L 54 107 L 54 160 L 19.003906 160 Z M 19.003906 107 " clip-rule="nonzero"/></clipPath><clipPath id="4f455bf687"><path d="M 19.003906 112 L 53 112 L 53 173 L 19.003906 173 Z M 19.003906 112 " clip-rule="nonzero"/></clipPath><clipPath id="9f08cc4524"><path d="M 19.003906 92 L 161.503906 92 L 161.503906 184 L 19.003906 184 Z M 19.003906 92 " clip-rule="nonzero"/></clipPath><clipPath id="cce3d993df"><path d="M 19.003906 116 L 45 116 L 45 164 L 19.003906 164 Z M 19.003906 116 " clip-rule="nonzero"/></clipPath><clipPath id="ec85244ada"><path d="M 92 116 L 117 116 L 117 187.484375 L 92 187.484375 Z M 92 116 " clip-rule="nonzero"/></clipPath><clipPath id="55d124170b"><path d="M 19.003906 120 L 45 120 L 45 187.484375 L 19.003906 187.484375 Z M 19.003906 120 " clip-rule="nonzero"/></clipPath></defs><g clip-path="url(#62cf15e9be)"><path fill="#f7931e" d="M 286.371094 348.644531 L 286.253906 348.738281 L 285.363281 349.433594 L 284.820312 349.859375 L 283.519531 350.871094 L 283.050781 351.238281 L 283.519531 350.917969 L 284.820312 350.035156 L 285.449219 349.605469 L 286.371094 348.980469 L 286.375 348.984375 L 286.394531 349 L 287.6875 349.992188 L 286.503906 348.777344 Z M 286.371094 348.644531 " fill-opacity="1" fill-rule="nonzero"/></g><g clip-path="url(#6215c53018)"><path fill="#f7931e" d="M 286.746094 348.289062 L 286.355469 348.289062 L 286.613281 348.554688 L 287.429688 349.390625 L 287.957031 349.933594 L 287.957031 351.695312 L 289.257812 351.695312 L 289.257812 349.484375 L 288.121094 348.289062 Z M 286.746094 348.289062 " fill-opacity="1" fill-rule="nonzero"/></g><g clip-path="url(#7f51bfccd5)"><path fill="#1d324d" d="M 284.820312 348.335938 L 285.257812 349.214844 L 286.144531 348.519531 L 286.03125 348.289062 L 284.929688 346.070312 L 283.519531 346.070312 L 283.519531 350.574219 L 284.820312 349.558594 Z M 284.820312 348.335938 " fill-opacity="1" fill-rule="nonzero"/></g><g clip-path="url(#934f541891)"><path fill="#1d324d" d="M 283.519531 351.695312 L 284.820312 351.695312 L 284.820312 350.316406 L 283.519531 351.203125 Z M 283.519531 351.695312 " fill-opacity="1" fill-rule="nonzero"/></g><g clip-path="url(#9e4aa30c04)"><path fill="#1d324d" d="M 287.847656 346.070312 L 286.859375 348.054688 L 288.222656 348.054688 L 289.257812 349.144531 L 289.257812 346.070312 Z M 287.847656 346.070312 " fill-opacity="1" fill-rule="nonzero"/></g><path fill="#1d324d" d="M 286.054688 349.996094 L 286.054688 350.152344 L 286.34375 350.152344 L 286.34375 349.699219 C 286.261719 349.699219 286.191406 349.730469 286.136719 349.785156 C 286.085938 349.839844 286.054688 349.914062 286.054688 349.996094 Z M 286.054688 349.996094 " fill-opacity="1" fill-rule="nonzero"/><path fill="#1d324d" d="M 286.410156 349.699219 L 286.410156 350.152344 L 286.699219 350.152344 L 286.699219 349.996094 C 286.699219 349.832031 286.570312 349.699219 286.410156 349.699219 Z M 286.410156 349.699219 " fill-opacity="1" fill-rule="nonzero"/><path fill="#1d324d" d="M 286.054688 350.21875 L 286.34375 350.21875 L 286.34375 350.511719 L 286.054688 350.511719 Z M 286.054688 350.21875 " fill-opacity="1" fill-rule="nonzero"/><path fill="#1d324d" d="M 286.410156 350.21875 L 286.699219 350.21875 L 286.699219 350.511719 L 286.410156 350.511719 Z M 286.410156 350.21875 " fill-opacity="1" fill-rule="nonzero"/><g fill="#5e5653" fill-opacity="1"><g transform="translate(20.228541, 211.838482)"><g><path d="M 1.671875 0 L 1.671875 -12.125 L 3.078125 -12.125 L 3.078125 0 Z M 1.671875 0 "/></g></g></g><g fill="#5e5653" fill-opacity="1"><g transform="translate(31.905682, 211.838482)"><g><path d="M 11.140625 0 L 9.53125 0 L 2.90625 -10.171875 L 2.84375 -10.171875 C 2.925781 -8.984375 2.96875 -7.890625 2.96875 -6.890625 L 2.96875 0 L 1.671875 0 L 1.671875 -12.125 L 3.265625 -12.125 L 9.875 -1.984375 L 9.9375 -1.984375 C 9.925781 -2.140625 9.898438 -2.617188 9.859375 -3.421875 C 9.816406 -4.234375 9.800781 -4.816406 9.8125 -5.171875 L 9.8125 -12.125 L 11.140625 -12.125 Z M 11.140625 0 "/></g></g></g><g fill="#5e5653" fill-opacity="1"><g transform="translate(51.644636, 211.838482)"><g><path d="M 5.40625 0 L 3.984375 0 L 3.984375 -10.875 L 0.15625 -10.875 L 0.15625 -12.125 L 9.234375 -12.125 L 9.234375 -10.875 L 5.40625 -10.875 Z M 5.40625 0 "/></g></g></g><g fill="#5e5653" fill-opacity="1"><g transform="translate(67.978241, 211.838482)"><g><path d="M 8.421875 0 L 1.671875 0 L 1.671875 -12.125 L 8.421875 -12.125 L 8.421875 -10.875 L 3.078125 -10.875 L 3.078125 -6.96875 L 8.109375 -6.96875 L 8.109375 -5.71875 L 3.078125 -5.71875 L 3.078125 -1.265625 L 8.421875 -1.265625 Z M 8.421875 0 "/></g></g></g><g fill="#5e5653" fill-opacity="1"><g transform="translate(84.361558, 211.838482)"><g><path d="M 3.078125 -5.046875 L 3.078125 0 L 1.671875 0 L 1.671875 -12.125 L 5 -12.125 C 6.476562 -12.125 7.570312 -11.835938 8.28125 -11.265625 C 9 -10.703125 9.359375 -9.847656 9.359375 -8.703125 C 9.359375 -7.097656 8.546875 -6.015625 6.921875 -5.453125 L 10.203125 0 L 8.546875 0 L 5.609375 -5.046875 Z M 3.078125 -6.25 L 5.015625 -6.25 C 6.003906 -6.25 6.726562 -6.445312 7.1875 -6.84375 C 7.65625 -7.238281 7.890625 -7.832031 7.890625 -8.625 C 7.890625 -9.425781 7.65625 -10.003906 7.1875 -10.359375 C 6.71875 -10.710938 5.957031 -10.890625 4.90625 -10.890625 L 3.078125 -10.890625 Z M 3.078125 -6.25 "/></g></g></g><g fill="#5e5653" fill-opacity="1"><g transform="translate(101.797135, 211.838482)"><g><path d="M 1.671875 0 L 1.671875 -12.125 L 3.078125 -12.125 L 3.078125 0 Z M 1.671875 0 "/></g></g></g><g fill="#5e5653" fill-opacity="1"><g transform="translate(113.474273, 211.838482)"><g><path d="M 12.1875 -6.078125 C 12.1875 -4.140625 11.695312 -2.613281 10.71875 -1.5 C 9.738281 -0.382812 8.375 0.171875 6.625 0.171875 C 4.84375 0.171875 3.460938 -0.375 2.484375 -1.46875 C 1.515625 -2.5625 1.03125 -4.101562 1.03125 -6.09375 C 1.03125 -8.070312 1.515625 -9.601562 2.484375 -10.6875 C 3.460938 -11.769531 4.847656 -12.3125 6.640625 -12.3125 C 8.378906 -12.3125 9.738281 -11.757812 10.71875 -10.65625 C 11.695312 -9.550781 12.1875 -8.023438 12.1875 -6.078125 Z M 2.53125 -6.078125 C 2.53125 -4.429688 2.878906 -3.179688 3.578125 -2.328125 C 4.273438 -1.484375 5.289062 -1.0625 6.625 -1.0625 C 7.96875 -1.0625 8.984375 -1.484375 9.671875 -2.328125 C 10.359375 -3.179688 10.703125 -4.429688 10.703125 -6.078125 C 10.703125 -7.710938 10.359375 -8.953125 9.671875 -9.796875 C 8.992188 -10.640625 7.984375 -11.0625 6.640625 -11.0625 C 5.296875 -11.0625 4.273438 -10.632812 3.578125 -9.78125 C 2.878906 -8.9375 2.53125 -7.703125 2.53125 -6.078125 Z M 2.53125 -6.078125 "/></g></g></g><g fill="#5e5653" fill-opacity="1"><g transform="translate(133.635786, 211.838482)"><g><path d="M 3.078125 -5.046875 L 3.078125 0 L 1.671875 0 L 1.671875 -12.125 L 5 -12.125 C 6.476562 -12.125 7.570312 -11.835938 8.28125 -11.265625 C 9 -10.703125 9.359375 -9.847656 9.359375 -8.703125 C 9.359375 -7.097656 8.546875 -6.015625 6.921875 -5.453125 L 10.203125 0 L 8.546875 0 L 5.609375 -5.046875 Z M 3.078125 -6.25 L 5.015625 -6.25 C 6.003906 -6.25 6.726562 -6.445312 7.1875 -6.84375 C 7.65625 -7.238281 7.890625 -7.832031 7.890625 -8.625 C 7.890625 -9.425781 7.65625 -10.003906 7.1875 -10.359375 C 6.71875 -10.710938 5.957031 -10.890625 4.90625 -10.890625 L 3.078125 -10.890625 Z M 3.078125 -6.25 "/></g></g></g><g fill="#5e5653" fill-opacity="1"><g transform="translate(151.071363, 211.838482)"><g/></g></g><g fill="#5e5653" fill-opacity="1"><g transform="translate(162.425366, 211.838482)"><g><path d="M 3.4375 -9.71875 C 3.4375 -9.332031 3.535156 -8.96875 3.734375 -8.625 C 3.929688 -8.28125 4.269531 -7.863281 4.75 -7.375 C 5.46875 -7.789062 5.960938 -8.171875 6.234375 -8.515625 C 6.515625 -8.867188 6.65625 -9.273438 6.65625 -9.734375 C 6.65625 -10.160156 6.515625 -10.503906 6.234375 -10.765625 C 5.953125 -11.035156 5.570312 -11.171875 5.09375 -11.171875 C 4.601562 -11.171875 4.203125 -11.039062 3.890625 -10.78125 C 3.585938 -10.519531 3.4375 -10.164062 3.4375 -9.71875 Z M 4.71875 -1.0625 C 6.050781 -1.0625 7.15625 -1.488281 8.03125 -2.34375 L 4.40625 -5.859375 C 3.789062 -5.484375 3.359375 -5.171875 3.109375 -4.921875 C 2.859375 -4.679688 2.671875 -4.421875 2.546875 -4.140625 C 2.421875 -3.859375 2.359375 -3.535156 2.359375 -3.171875 C 2.359375 -2.523438 2.570312 -2.007812 3 -1.625 C 3.4375 -1.25 4.007812 -1.0625 4.71875 -1.0625 Z M 0.9375 -3.140625 C 0.9375 -3.859375 1.128906 -4.492188 1.515625 -5.046875 C 1.898438 -5.597656 2.585938 -6.15625 3.578125 -6.71875 C 3.109375 -7.25 2.789062 -7.648438 2.625 -7.921875 C 2.457031 -8.191406 2.320312 -8.472656 2.21875 -8.765625 C 2.125 -9.054688 2.078125 -9.359375 2.078125 -9.671875 C 2.078125 -10.503906 2.347656 -11.148438 2.890625 -11.609375 C 3.429688 -12.078125 4.1875 -12.3125 5.15625 -12.3125 C 6.050781 -12.3125 6.753906 -12.082031 7.265625 -11.625 C 7.773438 -11.164062 8.03125 -10.519531 8.03125 -9.6875 C 8.03125 -9.101562 7.84375 -8.5625 7.46875 -8.0625 C 7.09375 -7.5625 6.472656 -7.050781 5.609375 -6.53125 L 8.984375 -3.296875 C 9.296875 -3.640625 9.539062 -4.039062 9.71875 -4.5 C 9.90625 -4.957031 10.0625 -5.460938 10.1875 -6.015625 L 11.578125 -6.015625 C 11.203125 -4.429688 10.640625 -3.226562 9.890625 -2.40625 L 12.359375 0 L 10.46875 0 L 8.9375 -1.46875 C 8.28125 -0.882812 7.613281 -0.460938 6.9375 -0.203125 C 6.257812 0.046875 5.507812 0.171875 4.6875 0.171875 C 3.5 0.171875 2.578125 -0.117188 1.921875 -0.703125 C 1.265625 -1.296875 0.9375 -2.109375 0.9375 -3.140625 Z M 0.9375 -3.140625 "/></g></g></g><g fill="#5e5653" fill-opacity="1"><g transform="translate(181.758327, 211.838482)"><g/></g></g><g fill="#5e5653" fill-opacity="1"><g transform="translate(193.11233, 211.838482)"><g><path d="M 11.34375 -6.171875 C 11.34375 -4.171875 10.796875 -2.640625 9.703125 -1.578125 C 8.617188 -0.523438 7.0625 0 5.03125 0 L 1.671875 0 L 1.671875 -12.125 L 5.375 -12.125 C 7.257812 -12.125 8.722656 -11.597656 9.765625 -10.546875 C 10.816406 -9.503906 11.34375 -8.046875 11.34375 -6.171875 Z M 9.859375 -6.125 C 9.859375 -7.707031 9.457031 -8.898438 8.65625 -9.703125 C 7.863281 -10.503906 6.6875 -10.90625 5.125 -10.90625 L 3.078125 -10.90625 L 3.078125 -1.21875 L 4.796875 -1.21875 C 6.472656 -1.21875 7.734375 -1.628906 8.578125 -2.453125 C 9.429688 -3.285156 9.859375 -4.507812 9.859375 -6.125 Z M 9.859375 -6.125 "/></g></g></g><g fill="#5e5653" fill-opacity="1"><g transform="translate(212.428731, 211.838482)"><g><path d="M 8.421875 0 L 1.671875 0 L 1.671875 -12.125 L 8.421875 -12.125 L 8.421875 -10.875 L 3.078125 -10.875 L 3.078125 -6.96875 L 8.109375 -6.96875 L 8.109375 -5.71875 L 3.078125 -5.71875 L 3.078125 -1.265625 L 8.421875 -1.265625 Z M 8.421875 0 "/></g></g></g><g fill="#5e5653" fill-opacity="1"><g transform="translate(228.812046, 211.838482)"><g><path d="M 6.859375 -11.03125 C 5.523438 -11.03125 4.472656 -10.585938 3.703125 -9.703125 C 2.929688 -8.816406 2.546875 -7.601562 2.546875 -6.0625 C 2.546875 -4.476562 2.914062 -3.253906 3.65625 -2.390625 C 4.40625 -1.523438 5.46875 -1.09375 6.84375 -1.09375 C 7.6875 -1.09375 8.648438 -1.242188 9.734375 -1.546875 L 9.734375 -0.3125 C 8.890625 0.0078125 7.851562 0.171875 6.625 0.171875 C 4.84375 0.171875 3.460938 -0.367188 2.484375 -1.453125 C 1.515625 -2.535156 1.03125 -4.078125 1.03125 -6.078125 C 1.03125 -7.328125 1.265625 -8.421875 1.734375 -9.359375 C 2.203125 -10.296875 2.875 -11.019531 3.75 -11.53125 C 4.632812 -12.039062 5.675781 -12.296875 6.875 -12.296875 C 8.144531 -12.296875 9.253906 -12.066406 10.203125 -11.609375 L 9.609375 -10.390625 C 8.691406 -10.816406 7.773438 -11.03125 6.859375 -11.03125 Z M 6.859375 -11.03125 "/></g></g></g><g fill="#5e5653" fill-opacity="1"><g transform="translate(246.463046, 211.838482)"><g><path d="M 12.1875 -6.078125 C 12.1875 -4.140625 11.695312 -2.613281 10.71875 -1.5 C 9.738281 -0.382812 8.375 0.171875 6.625 0.171875 C 4.84375 0.171875 3.460938 -0.375 2.484375 -1.46875 C 1.515625 -2.5625 1.03125 -4.101562 1.03125 -6.09375 C 1.03125 -8.070312 1.515625 -9.601562 2.484375 -10.6875 C 3.460938 -11.769531 4.847656 -12.3125 6.640625 -12.3125 C 8.378906 -12.3125 9.738281 -11.757812 10.71875 -10.65625 C 11.695312 -9.550781 12.1875 -8.023438 12.1875 -6.078125 Z M 2.53125 -6.078125 C 2.53125 -4.429688 2.878906 -3.179688 3.578125 -2.328125 C 4.273438 -1.484375 5.289062 -1.0625 6.625 -1.0625 C 7.96875 -1.0625 8.984375 -1.484375 9.671875 -2.328125 C 10.359375 -3.179688 10.703125 -4.429688 10.703125 -6.078125 C 10.703125 -7.710938 10.359375 -8.953125 9.671875 -9.796875 C 8.992188 -10.640625 7.984375 -11.0625 6.640625 -11.0625 C 5.296875 -11.0625 4.273438 -10.632812 3.578125 -9.78125 C 2.878906 -8.9375 2.53125 -7.703125 2.53125 -6.078125 Z M 2.53125 -6.078125 "/></g></g></g><g fill="#5e5653" fill-opacity="1"><g transform="translate(266.624559, 211.838482)"><g><path d="M 3.078125 -5.046875 L 3.078125 0 L 1.671875 0 L 1.671875 -12.125 L 5 -12.125 C 6.476562 -12.125 7.570312 -11.835938 8.28125 -11.265625 C 9 -10.703125 9.359375 -9.847656 9.359375 -8.703125 C 9.359375 -7.097656 8.546875 -6.015625 6.921875 -5.453125 L 10.203125 0 L 8.546875 0 L 5.609375 -5.046875 Z M 3.078125 -6.25 L 5.015625 -6.25 C 6.003906 -6.25 6.726562 -6.445312 7.1875 -6.84375 C 7.65625 -7.238281 7.890625 -7.832031 7.890625 -8.625 C 7.890625 -9.425781 7.65625 -10.003906 7.1875 -10.359375 C 6.71875 -10.710938 5.957031 -10.890625 4.90625 -10.890625 L 3.078125 -10.890625 Z M 3.078125 -6.25 "/></g></g></g><g fill="#5e5653" fill-opacity="1"><g transform="translate(284.060135, 211.838482)"><g><path d="M 9.28125 0 L 7.78125 -3.859375 L 2.921875 -3.859375 L 1.421875 0 L 0 0 L 4.796875 -12.171875 L 5.984375 -12.171875 L 10.75 0 Z M 7.34375 -5.125 L 5.921875 -8.875 C 5.742188 -9.351562 5.554688 -9.9375 5.359375 -10.625 C 5.242188 -10.09375 5.070312 -9.507812 4.84375 -8.875 L 3.421875 -5.125 Z M 7.34375 -5.125 "/></g></g></g><g fill="#5e5653" fill-opacity="1"><g transform="translate(301.744277, 211.838482)"><g><path d="M 5.40625 0 L 3.984375 0 L 3.984375 -10.875 L 0.15625 -10.875 L 0.15625 -12.125 L 9.234375 -12.125 L 9.234375 -10.875 L 5.40625 -10.875 Z M 5.40625 0 "/></g></g></g><g fill="#5e5653" fill-opacity="1"><g transform="translate(318.077879, 211.838482)"><g><path d="M 12.1875 -6.078125 C 12.1875 -4.140625 11.695312 -2.613281 10.71875 -1.5 C 9.738281 -0.382812 8.375 0.171875 6.625 0.171875 C 4.84375 0.171875 3.460938 -0.375 2.484375 -1.46875 C 1.515625 -2.5625 1.03125 -4.101562 1.03125 -6.09375 C 1.03125 -8.070312 1.515625 -9.601562 2.484375 -10.6875 C 3.460938 -11.769531 4.847656 -12.3125 6.640625 -12.3125 C 8.378906 -12.3125 9.738281 -11.757812 10.71875 -10.65625 C 11.695312 -9.550781 12.1875 -8.023438 12.1875 -6.078125 Z M 2.53125 -6.078125 C 2.53125 -4.429688 2.878906 -3.179688 3.578125 -2.328125 C 4.273438 -1.484375 5.289062 -1.0625 6.625 -1.0625 C 7.96875 -1.0625 8.984375 -1.484375 9.671875 -2.328125 C 10.359375 -3.179688 10.703125 -4.429688 10.703125 -6.078125 C 10.703125 -7.710938 10.359375 -8.953125 9.671875 -9.796875 C 8.992188 -10.640625 7.984375 -11.0625 6.640625 -11.0625 C 5.296875 -11.0625 4.273438 -10.632812 3.578125 -9.78125 C 2.878906 -8.9375 2.53125 -7.703125 2.53125 -6.078125 Z M 2.53125 -6.078125 "/></g></g></g><g fill="#5e5653" fill-opacity="1"><g transform="translate(338.239391, 211.838482)"><g><path d="M 3.078125 -5.046875 L 3.078125 0 L 1.671875 0 L 1.671875 -12.125 L 5 -12.125 C 6.476562 -12.125 7.570312 -11.835938 8.28125 -11.265625 C 9 -10.703125 9.359375 -9.847656 9.359375 -8.703125 C 9.359375 -7.097656 8.546875 -6.015625 6.921875 -5.453125 L 10.203125 0 L 8.546875 0 L 5.609375 -5.046875 Z M 3.078125 -6.25 L 5.015625 -6.25 C 6.003906 -6.25 6.726562 -6.445312 7.1875 -6.84375 C 7.65625 -7.238281 7.890625 -7.832031 7.890625 -8.625 C 7.890625 -9.425781 7.65625 -10.003906 7.1875 -10.359375 C 6.71875 -10.710938 5.957031 -10.890625 4.90625 -10.890625 L 3.078125 -10.890625 Z M 3.078125 -6.25 "/></g></g></g><g fill="#5e5653" fill-opacity="1"><g transform="translate(355.674968, 211.838482)"><g><path d="M 8.515625 -3.21875 C 8.515625 -2.15625 8.125 -1.320312 7.34375 -0.71875 C 6.570312 -0.125 5.523438 0.171875 4.203125 0.171875 C 2.765625 0.171875 1.65625 -0.015625 0.875 -0.390625 L 0.875 -1.75 C 1.375 -1.539062 1.914062 -1.375 2.5 -1.25 C 3.09375 -1.125 3.675781 -1.0625 4.25 -1.0625 C 5.1875 -1.0625 5.890625 -1.238281 6.359375 -1.59375 C 6.835938 -1.957031 7.078125 -2.457031 7.078125 -3.09375 C 7.078125 -3.507812 6.992188 -3.851562 6.828125 -4.125 C 6.660156 -4.394531 6.378906 -4.640625 5.984375 -4.859375 C 5.585938 -5.085938 4.988281 -5.347656 4.1875 -5.640625 C 3.050781 -6.046875 2.238281 -6.523438 1.75 -7.078125 C 1.269531 -7.628906 1.03125 -8.347656 1.03125 -9.234375 C 1.03125 -10.171875 1.378906 -10.914062 2.078125 -11.46875 C 2.785156 -12.019531 3.71875 -12.296875 4.875 -12.296875 C 6.082031 -12.296875 7.191406 -12.078125 8.203125 -11.640625 L 7.765625 -10.40625 C 6.765625 -10.820312 5.789062 -11.03125 4.84375 -11.03125 C 4.09375 -11.03125 3.507812 -10.867188 3.09375 -10.546875 C 2.675781 -10.234375 2.46875 -9.789062 2.46875 -9.21875 C 2.46875 -8.800781 2.539062 -8.457031 2.6875 -8.1875 C 2.84375 -7.914062 3.101562 -7.664062 3.46875 -7.4375 C 3.84375 -7.21875 4.410156 -6.972656 5.171875 -6.703125 C 6.441406 -6.253906 7.316406 -5.769531 7.796875 -5.25 C 8.273438 -4.726562 8.515625 -4.050781 8.515625 -3.21875 Z M 8.515625 -3.21875 "/></g></g></g><g fill="#5e5653" fill-opacity="1"><g transform="translate(112.449036, 187.251301)"><g><path d="M 37.890625 0 L 28.390625 0 L 26.0625 -6.046875 L 11.296875 -6.046875 L 8.90625 0 L -0.25 0 L 14.421875 -34.140625 L 23.578125 -34.140625 Z M 18.75 -25.03125 L 13.984375 -12.859375 L 23.421875 -12.859375 Z M 18.75 -25.03125 "/></g></g></g><g fill="#5e5653" fill-opacity="1"><g transform="translate(150.082778, 187.251301)"><g><path d="M 3.3125 0 L 3.3125 -34.140625 L 12.21875 -34.140625 L 12.21875 -20.21875 L 26 -20.21875 L 26 -34.140625 L 34.921875 -34.140625 L 34.921875 0 L 26 0 L 26 -13.09375 L 12.21875 -13.09375 L 12.21875 0 Z M 3.3125 0 "/></g></g></g><g fill="#5e5653" fill-opacity="1"><g transform="translate(188.300736, 187.251301)"><g><path d="M 37.890625 0 L 28.390625 0 L 26.0625 -6.046875 L 11.296875 -6.046875 L 8.90625 0 L -0.25 0 L 14.421875 -34.140625 L 23.578125 -34.140625 Z M 18.75 -25.03125 L 13.984375 -12.859375 L 23.421875 -12.859375 Z M 18.75 -25.03125 "/></g></g></g><g fill="#5e5653" fill-opacity="1"><g transform="translate(225.934477, 187.251301)"><g><path d="M 13.15625 0 L -0.09375 -34.140625 L 9.5 -34.140625 L 18.015625 -9.453125 L 26.59375 -34.140625 L 35.75 -34.140625 L 22.40625 0 Z M 13.15625 0 "/></g></g></g><g fill="#5e5653" fill-opacity="1"><g transform="translate(261.572128, 187.251301)"><g><path d="M 3.3125 0 L 3.3125 -34.140625 L 30.25 -34.140625 L 30.25 -27.03125 L 12.21875 -27.03125 L 12.21875 -20.65625 L 28.484375 -20.65625 L 28.484375 -13.59375 L 12.21875 -13.546875 L 12.21875 -7.109375 L 30.734375 -7.109375 L 30.734375 0 Z M 3.3125 0 "/></g></g></g><g fill="#5e5653" fill-opacity="1"><g transform="translate(294.434706, 187.251301)"><g><path d="M 3.3125 0 L 3.3125 -34.140625 L 30.25 -34.140625 L 30.25 -27.03125 L 12.21875 -27.03125 L 12.21875 -20.65625 L 28.484375 -20.65625 L 28.484375 -13.59375 L 12.21875 -13.546875 L 12.21875 -7.109375 L 30.734375 -7.109375 L 30.734375 0 Z M 3.3125 0 "/></g></g></g><g fill="#5e5653" fill-opacity="1"><g transform="translate(327.297283, 187.251301)"><g><path d="M 33.890625 0 L 23.8125 0 L 18.84375 -9.453125 L 12.21875 -9.453125 L 12.21875 0 L 3.3125 0 L 3.3125 -34.140625 L 18.65625 -34.140625 C 23.164062 -34.140625 26.660156 -33.09375 29.140625 -31 C 31.628906 -28.90625 32.875 -25.957031 32.875 -22.15625 C 32.875 -19.59375 32.351562 -17.378906 31.3125 -15.515625 C 30.269531 -13.648438 28.757812 -12.195312 26.78125 -11.15625 Z M 12.21875 -27.03125 L 12.21875 -16.5625 L 18.703125 -16.5625 C 20.515625 -16.5625 21.914062 -17.015625 22.90625 -17.921875 C 23.90625 -18.828125 24.40625 -20.144531 24.40625 -21.875 C 24.40625 -23.53125 23.90625 -24.800781 22.90625 -25.6875 C 21.914062 -26.582031 20.515625 -27.03125 18.703125 -27.03125 Z M 12.21875 -27.03125 "/></g></g></g><g fill="#5e5653" fill-opacity="1"><g transform="translate(362.54592, 187.251301)"><g/></g></g><g clip-path="url(#720d8a2e23)"><path fill="#f69f0e" d="M 19.003906 191.773438 L 366.234375 191.773438 L 366.234375 195.535156 L 19.003906 195.535156 Z M 19.003906 191.773438 " fill-opacity="1" fill-rule="nonzero"/></g><path stroke-linecap="butt" transform="matrix(0.75, 0, 0, 0.75, -28.780297, 47.63722)" fill="none" stroke-linejoin="miter" d="M 193.826855 92.093082 C 188.243521 97.520165 184.56123 101.296207 182.774771 103.421207 C 175.238313 112.34829 168.128938 121.259748 161.446646 130.150373 " stroke="#809924" stroke-width="2" stroke-opacity="1" stroke-miterlimit="4"/><g clip-path="url(#ba28c65c9b)"><path stroke-linecap="butt" transform="matrix(0.75, 0, 0, 0.75, -28.780297, 47.63722)" fill="none" stroke-linejoin="miter" d="M 97.790396 137.603498 L 64.84248 91.53579 " stroke="#759016" stroke-width="2" stroke-opacity="1" stroke-miterlimit="4"/></g><g clip-path="url(#4f455bf687)"><path stroke-linecap="butt" transform="matrix(0.75, 0, 0, 0.75, -28.780297, 47.63722)" fill="none" stroke-linejoin="miter" d="M 97.665396 154.790998 C 96.238313 154.858707 95.27998 154.37954 94.68623 152.994123 C 90.300813 142.863915 86.384146 134.400373 82.925813 127.603498 C 80.96748 123.759748 79.071646 119.895165 77.227896 116.00454 C 75.753938 112.874332 74.071646 109.728498 72.181021 106.572248 C 70.837271 104.301415 69.02998 102.59829 67.910188 100.34829 C 67.587271 99.681623 67.227896 99.16079 66.837271 98.796207 C 65.519563 97.540998 64.863313 97.384748 64.863313 98.327457 " stroke="#3c3e39" stroke-width="2" stroke-opacity="1" stroke-miterlimit="4"/></g><g clip-path="url(#9f08cc4524)"><path fill="#f69f0e" d="M 116.589844 116.707031 C 112.402344 120.777344 109.640625 123.609375 108.300781 125.203125 C 102.648438 131.898438 97.316406 138.582031 92.304688 145.25 C 88.820312 149.578125 86.117188 153.289062 84.195312 156.382812 C 78.917969 164.859375 73.914062 173.714844 69.175781 182.945312 C 68.722656 183.828125 68.210938 183.871094 67.632812 183.0625 L 44.5625 150.839844 L 19.851562 116.289062 C 28.390625 115.785156 36.65625 115.730469 44.648438 116.125 C 45.3125 116.160156 45.84375 116.441406 46.242188 116.964844 C 53.464844 126.539062 60.625 135.859375 67.726562 144.925781 C 68.148438 145.460938 68.550781 145.449219 68.933594 144.890625 C 79.613281 129.296875 91.34375 114.945312 106.5625 103.878906 C 111.21875 100.496094 116.03125 97.800781 121 95.796875 C 131.851562 91.421875 142.726562 91.433594 153.625 95.832031 C 156.035156 96.800781 158.410156 98.101562 160.75 99.734375 C 161.199219 100.050781 161.152344 100.171875 160.605469 100.105469 C 157.828125 99.769531 154.875 99.058594 152.125 99.222656 C 145.933594 99.574219 140.707031 100.773438 136.445312 102.808594 C 129.578125 106.09375 122.960938 110.726562 116.589844 116.707031 Z M 116.589844 116.707031 " fill-opacity="1" fill-rule="nonzero"/></g><g clip-path="url(#cce3d993df)"><path fill="#5e5653" d="M 19.851562 116.289062 L 44.5625 150.839844 L 44.46875 163.730469 C 43.398438 163.78125 42.679688 163.421875 42.234375 162.382812 C 38.945312 154.785156 36.007812 148.4375 33.414062 143.339844 C 31.945312 140.457031 30.523438 137.558594 29.140625 134.640625 C 28.035156 132.292969 26.773438 129.933594 25.355469 127.566406 C 24.347656 125.863281 22.992188 124.585938 22.152344 122.898438 C 21.910156 122.398438 21.640625 122.007812 21.347656 121.734375 C 20.359375 120.792969 19.867188 120.675781 19.867188 121.382812 Z M 19.851562 116.289062 " fill-opacity="1" fill-rule="nonzero"/></g><g clip-path="url(#ec85244ada)"><path fill="#5e5653" d="M 116.589844 116.707031 L 116.75 185.96875 C 116.75 186.984375 116.242188 187.488281 115.226562 187.484375 L 93.3125 187.328125 C 93.097656 187.328125 92.914062 187.246094 92.757812 187.09375 C 92.605469 186.9375 92.527344 186.75 92.527344 186.53125 L 92.304688 145.25 C 97.316406 138.582031 102.648438 131.898438 108.300781 125.203125 C 109.640625 123.609375 112.402344 120.777344 116.589844 116.707031 Z M 116.589844 116.707031 " fill-opacity="1" fill-rule="nonzero"/></g><g clip-path="url(#55d124170b)"><path fill="#5e5653" d="M 44.46875 163.730469 L 44.332031 186.882812 C 44.332031 187.039062 44.277344 187.171875 44.167969 187.28125 C 44.054688 187.390625 43.921875 187.441406 43.765625 187.441406 L 21.015625 187.191406 C 20.847656 187.191406 20.6875 187.15625 20.53125 187.09375 C 20.378906 187.027344 20.242188 186.9375 20.125 186.816406 C 20.007812 186.699219 19.914062 186.5625 19.851562 186.40625 C 19.789062 186.253906 19.757812 186.09375 19.757812 185.925781 L 19.867188 121.382812 C 19.867188 120.675781 20.359375 120.792969 21.347656 121.734375 C 21.640625 122.007812 21.910156 122.398438 22.152344 122.898438 C 22.992188 124.585938 24.347656 125.863281 25.355469 127.566406 C 26.773438 129.933594 28.035156 132.292969 29.140625 134.640625 C 30.523438 137.558594 31.945312 140.457031 33.414062 143.339844 C 36.007812 148.4375 38.945312 154.785156 42.234375 162.382812 C 42.679688 163.421875 43.398438 163.78125 44.46875 163.730469 Z M 44.46875 163.730469 " fill-opacity="1" fill-rule="nonzero"/></g></svg>